<svg viewBox="0 0 124.5 47.6" xmlns="http://www.w3.org/2000/svg">
<path d="M28.9 15.9H27v4.9h1.3c.8 0 1.5-.2 2.2-.7.5-.5.8-1.1.8-1.9 0-.6-.2-1.3-.6-1.7-.5-.4-1.1-.7-1.8-.6zm16.6 7h3.6l-1.8-5.7-1.8 5.7zm49.4-7.2c-1.1-.1-2.1.4-2.8 1.3-.7 1.3-1.1 2.9-.9 4.4-.1 1.5.2 3 .9 4.3.5.9 1.6 1.5 2.6 1.4 1.1.1 2.2-.5 2.8-1.4 1.3-2.8 1.3-5.9.1-8.7-.7-.8-1.7-1.3-2.7-1.3zM124.5 8h-44V5.3L62.1 0 43.7 5.3V8H0l4.6 14.1L0 36.3h44.6c.5.7 1.1 1.4 1.8 2l.1.1.5.4.1.1.5.4.1.1c1.3 1 2.7 2 4.1 2.8l.7.4h.1l.7.4c1.2.7 2.5 1.4 3.6 2l.6.3h.1l.6.3h.1l.5.3h.1l1.9.9h.1l.3.1.1.1.2.1.1.1.2.1.1.1h.1l.1.1h.4l.2-.1h.1l.2-.1.2-.1.2-.1.2-.1.2-.1.3-.1h.1l.8-.4.2-.1.4-.2.2-.1.4-.2.3-.1.4-.2.3-.1.5-.2.2-.1.5-.3.2-.1c.6-.3 1.2-.6 1.9-1l.2-.1.5-.3.3-.1.5-.3.3-.2.5-.3.3-.2.5-.3.3-.2.5-.3.2-.1c.6-.4 1.2-.8 1.7-1.2l.2-.2.4-.3.2-.2.4-.3.3-.1.4-.3.2-.2.3-.3.2-.2.3-.3.2-.2c.2-.3.4-.5.6-.8h44.8l-4.6-14.2L124.5 8zM36.4 29.9H32l-2-4.4c-.2-.6-.6-1.3-1-1.8-.4-.3-.8-.4-1.3-.4H27v3.9l1.7.6v2.1h-7.1v-2.1l1.8-.6V15.9l-1.8-.7v-2L27 13h1.8c1.6-.1 3.2.3 4.5 1.2 1.1.9 1.7 2.2 1.6 3.6.1 1.9-.9 3.7-2.7 4.5.4.5.7 1 1 1.6l1.6 3.3 1.6.6v2.1zm19.8 0h-7.5v-2.1l1.8-.6-.6-1.8h-5.2l-.6 1.8 1.8.6v2.1h-7.1v-2.1l1.7-.6 5.2-14.1 3.8-.1 5.1 14.2 1.6.6v2.1zM72 27.6a7.33 7.33 0 0 1-5.7 2.3H59v-2.1l1.8-.6V15.9l-1.8-.8v-2l5.4-.1h2.2c2.1-.1 4.1.6 5.5 2.1 1.4 1.7 2.1 3.9 2 6.1.2 2.3-.6 4.6-2.1 6.4zm12.3-12.5l-1.8.7v11.3l1.8.6v2.1h-7.2v-2.1l1.8-.6V15.9l-1.8-.7v-2l7.2-.1v2zm15.9 12.6c-1.4 1.6-3.5 2.5-5.7 2.5-2 .1-4-.7-5.4-2.2-1.3-1.5-1.9-3.6-1.9-6.4-.1-2.3.6-4.6 2.1-6.5 1.5-1.6 3.5-2.5 5.7-2.4 2.1-.1 4.1.7 5.5 2.2 1.4 1.8 2.1 4 1.9 6.2.1 2.5-.7 4.8-2.2 6.6zM66.6 15.9h-2.1v11.2h2c1.1.1 2.2-.4 2.8-1.3.8-1.3 1.1-2.9 1-4.4.1-1.5-.2-2.9-.9-4.2-.7-.9-1.8-1.4-2.8-1.3z" fill="#fff"></path>
</svg>